<svg width="256" height="77" viewBox="0 0 256 77" fill="none" xmlns="http://www.w3.org/2000/svg">
<path d="M96.3645 17.5072H91.5664V12.0596H107.149V17.5072H102.285V31.8293H96.3645V17.5072Z" fill="#DEE3E5"/>
<path d="M108.029 24.383C108.029 23.0651 108.216 21.9228 108.591 20.9563C108.965 19.9898 109.493 19.1843 110.175 18.54C110.858 17.8956 111.683 17.416 112.651 17.1012C113.62 16.7863 114.698 16.6289 115.887 16.6289C117.075 16.6289 118.154 16.7863 119.122 17.1012C120.091 17.416 120.916 17.8956 121.598 18.54C122.281 19.1843 122.809 19.9898 123.183 20.9563C123.557 21.9228 123.744 23.0651 123.744 24.383C123.744 25.701 123.557 26.8433 123.183 27.8098C122.809 28.7763 122.281 29.5781 121.598 30.2151C120.916 30.8521 120.091 31.3281 119.122 31.6429C118.154 31.9578 117.075 32.1152 115.887 32.1152C114.698 32.1152 113.62 31.9578 112.651 31.6429C111.683 31.3281 110.858 30.8521 110.175 30.2151C109.493 29.5781 108.965 28.7763 108.591 27.8098C108.216 26.8433 108.029 25.701 108.029 24.383ZM115.887 27.0629C116.43 27.0629 116.87 26.8726 117.207 26.4918C117.545 26.1111 117.714 25.4081 117.714 24.383C117.714 22.5818 117.105 21.6812 115.887 21.6812C114.669 21.6812 114.06 22.5818 114.06 24.383C114.06 24.8956 114.104 25.3239 114.192 25.6681C114.28 26.0122 114.405 26.2868 114.566 26.4918C114.728 26.6968 114.918 26.8433 115.138 26.9311C115.359 27.019 115.608 27.0629 115.887 27.0629Z" fill="#DEE3E5"/>
<path d="M134.418 30.8408C134.11 31.119 133.795 31.3423 133.472 31.5107C133.149 31.6791 132.837 31.8109 132.537 31.9061C132.236 32.0013 131.95 32.0635 131.678 32.0928C131.407 32.1221 131.176 32.1368 130.985 32.1368C130.266 32.1368 129.587 32.0233 128.949 31.7963C128.311 31.5693 127.753 31.1995 127.276 30.687C126.799 30.1744 126.422 29.5045 126.143 28.6771C125.864 27.8497 125.725 26.8429 125.725 25.6567V16.9141H131.645V25.2393C131.645 25.7079 131.733 26.0887 131.909 26.3816C132.085 26.6745 132.379 26.8209 132.79 26.8209C133.039 26.8209 133.278 26.7513 133.505 26.6122C133.733 26.4731 133.964 26.1839 134.198 25.7445V16.9141H140.119V31.8292H135.167L134.418 30.8408Z" fill="#DEE3E5"/>
<path d="M147.272 16.9141L147.91 17.7488C148.365 17.3241 148.86 17.0313 149.395 16.8702C149.931 16.7091 150.441 16.6212 150.925 16.6066C151.248 16.5919 151.549 16.6066 151.828 16.6505C152.106 16.6944 152.385 16.753 152.664 16.8262V22.6034C152.385 22.5448 152.081 22.4936 151.751 22.4496C151.42 22.4057 151.079 22.3837 150.727 22.3837C150.272 22.3837 149.828 22.4313 149.395 22.5265C148.963 22.6217 148.577 22.8084 148.24 23.0866V31.8293H142.319V16.9141H147.272Z" fill="#DEE3E5"/>
<path d="M159.488 16.914L160.237 17.9025C160.53 17.6242 160.838 17.4009 161.161 17.2325C161.484 17.0641 161.799 16.9323 162.108 16.8371C162.416 16.7419 162.702 16.6797 162.966 16.6504C163.23 16.6211 163.465 16.6064 163.67 16.6064C164.389 16.6064 165.068 16.7199 165.706 16.9469C166.344 17.1739 166.902 17.5437 167.379 18.0562C167.856 18.5688 168.234 19.2388 168.512 20.0662C168.791 20.8936 168.931 21.9003 168.931 23.0865V31.8292H163.01V23.5039C163.01 23.0353 162.922 22.6545 162.746 22.3616C162.57 22.0688 162.276 21.9223 161.865 21.9223C161.616 21.9223 161.374 21.9955 161.139 22.142C160.904 22.2884 160.677 22.574 160.457 22.9987V31.8292H154.536V16.914H159.488Z" fill="#DEE3E5"/>
<path d="M185.503 31.8292H180.264L179.56 31.0164C179.002 31.4118 178.408 31.7047 177.777 31.895C177.146 32.0854 176.523 32.1806 175.906 32.1806C175.143 32.1806 174.454 32.0854 173.837 31.895C173.221 31.7047 172.697 31.4191 172.264 31.0384C171.831 30.6576 171.497 30.1817 171.262 29.6105C171.028 29.0394 170.91 28.3658 170.91 27.5896C170.91 26.6671 171.112 25.8653 171.515 25.1843C171.919 24.5034 172.491 23.9396 173.232 23.4929C173.973 23.0463 174.857 22.6985 175.884 22.4495C176.912 22.2006 178.041 22.0395 179.274 21.9662C179.245 21.8052 179.098 21.677 178.834 21.5818C178.57 21.4866 178.129 21.4391 177.513 21.4391C177.088 21.4391 176.647 21.4757 176.193 21.5489C175.738 21.6221 175.286 21.7173 174.839 21.8344C174.391 21.9516 173.97 22.0834 173.573 22.2298C173.177 22.3763 172.832 22.5301 172.539 22.6911L172.517 17.7707C173.221 17.4778 174.08 17.2105 175.092 16.9689C176.104 16.7273 177.205 16.6064 178.393 16.6064C179.743 16.6064 180.873 16.7492 181.783 17.0348C182.693 17.3204 183.423 17.7157 183.973 18.221C184.523 18.7262 184.916 19.323 185.15 20.0112C185.385 20.6995 185.503 21.439 185.503 22.2298V31.8292ZM179.274 25.9202C178.951 25.9202 178.65 25.9348 178.371 25.9641C178.093 25.9934 177.847 26.0483 177.634 26.1289C177.421 26.2094 177.253 26.3156 177.128 26.4474C177.003 26.5792 176.941 26.7476 176.941 26.9526C176.941 27.2162 177.036 27.4102 177.227 27.5347C177.418 27.6592 177.66 27.7214 177.953 27.7214C178.232 27.7214 178.496 27.6519 178.746 27.5128C178.995 27.3736 179.149 27.2016 179.208 26.9965C179.252 26.8501 179.274 26.7256 179.274 26.6231V25.9202Z" fill="#DEE3E5"/>
<path d="M192.569 16.914L193.164 17.7048C193.736 17.2508 194.319 16.9542 194.913 16.8151C195.508 16.676 195.988 16.6064 196.355 16.6064C197.147 16.6064 197.881 16.7419 198.556 17.0128C199.231 17.2837 199.803 17.7341 200.273 18.3638C200.625 17.9684 200.988 17.6535 201.362 17.4192C201.736 17.1849 202.099 17.0092 202.452 16.892C202.804 16.7749 203.127 16.698 203.42 16.6614C203.714 16.6248 203.956 16.6064 204.146 16.6064C204.865 16.6064 205.54 16.7199 206.171 16.9469C206.802 17.1739 207.349 17.5437 207.811 18.0562C208.273 18.5688 208.64 19.2388 208.912 20.0662C209.183 20.8936 209.319 21.9003 209.319 23.0865V31.8292H203.486V23.5039C203.486 23.0353 203.398 22.6545 203.222 22.3616C203.046 22.0688 202.752 21.9223 202.342 21.9223C202.033 21.9223 201.755 22.0248 201.505 22.2298C201.52 22.3763 201.527 22.5191 201.527 22.6582V31.8292H195.695V23.5039C195.695 23.0353 195.607 22.6545 195.431 22.3616C195.254 22.0688 194.961 21.9223 194.55 21.9223C194.374 21.9223 194.202 21.9553 194.033 22.0212C193.864 22.0871 193.699 22.2152 193.538 22.4056V31.8292H187.705V16.914H192.569Z" fill="#DEE3E5"/>
<path d="M217.725 26.5358C217.974 26.8579 218.312 27.1032 218.737 27.2716C219.163 27.44 219.72 27.5462 220.41 27.5901C220.718 27.6194 221.07 27.6267 221.466 27.6121C221.863 27.5975 222.273 27.5718 222.699 27.5352C223.124 27.4986 223.546 27.451 223.964 27.3924C224.383 27.3339 224.761 27.268 225.098 27.1947V31.2366C224.306 31.5587 223.436 31.7857 222.49 31.9175C221.543 32.0493 220.601 32.1152 219.662 32.1152C218.326 32.1152 217.141 31.9395 216.107 31.588C215.073 31.2366 214.199 30.735 213.488 30.0833C212.776 29.4317 212.233 28.6409 211.859 27.711C211.485 26.781 211.298 25.7303 211.298 24.5588C211.298 23.4605 211.448 22.428 211.749 21.4615C212.05 20.495 212.519 19.6566 213.158 18.9464C213.796 18.2361 214.603 17.676 215.579 17.2659C216.555 16.8559 217.725 16.6509 219.089 16.6509C220.351 16.6509 221.433 16.8632 222.336 17.2879C223.238 17.7126 223.975 18.2727 224.548 18.9683C225.12 19.6639 225.538 20.4547 225.802 21.3407C226.066 22.2267 226.198 23.131 226.198 24.0535C226.198 24.2586 226.195 24.4856 226.187 24.7345C226.18 24.9835 226.169 25.2287 226.154 25.4704C226.14 25.712 226.121 25.928 226.099 26.1184C226.077 26.3088 226.059 26.4479 226.044 26.5358H217.725ZM218.825 21.3956C218.473 21.3956 218.176 21.4945 217.934 21.6922C217.692 21.8899 217.512 22.1571 217.395 22.4939H220.3C220.226 22.2011 220.083 21.9448 219.871 21.7251C219.658 21.5054 219.309 21.3956 218.825 21.3956Z" fill="#DEE3E5"/>
<path d="M233.353 16.914L234.101 17.9025C234.394 17.6242 234.703 17.4009 235.025 17.2325C235.348 17.0641 235.664 16.9323 235.972 16.8371C236.28 16.7419 236.566 16.6797 236.83 16.6504C237.094 16.6211 237.329 16.6064 237.534 16.6064C238.253 16.6064 238.932 16.7199 239.57 16.9469C240.209 17.1739 240.766 17.5437 241.243 18.0562C241.72 18.5688 242.098 19.2388 242.377 20.0662C242.655 20.8936 242.795 21.9003 242.795 23.0865V31.8292H236.874V23.5039C236.874 23.0353 236.786 22.6545 236.61 22.3616C236.434 22.0688 236.141 21.9223 235.73 21.9223C235.48 21.9223 235.238 21.9955 235.003 22.142C234.769 22.2884 234.541 22.574 234.321 22.9987V31.8292H228.4V16.914H233.353Z" fill="#DEE3E5"/>
<path d="M246.712 16.914V13.1577H252.632V16.914H255.648V21.9662H252.632V25.5907C252.632 26.0154 252.72 26.3266 252.896 26.5243C253.072 26.722 253.359 26.8355 253.755 26.8647C254.151 26.894 254.532 26.883 254.899 26.8318C255.266 26.7805 255.633 26.7037 256 26.6011V31.6314C255.589 31.7925 255.116 31.9133 254.58 31.9939C254.045 32.0744 253.425 32.1147 252.72 32.1147C251.634 32.1147 250.714 31.9902 249.958 31.7413C249.202 31.4923 248.582 31.1262 248.098 30.643C247.614 30.1597 247.262 29.5703 247.042 28.8747C246.822 28.1791 246.712 27.3773 246.712 26.4693V21.9662H244.555V16.914H246.712Z" fill="#DEE3E5"/>
<path d="M92.0068 58.1887V38.4189H105.961V43.8007H97.9275V46.261H105.785V51.6207H97.9275V58.1887H92.0068Z" fill="#DEE3E5"/>
<path d="M108.073 50.7424C108.073 49.4244 108.26 48.2822 108.634 47.3157C109.009 46.3491 109.537 45.5437 110.219 44.8994C110.902 44.255 111.727 43.7754 112.695 43.4606C113.664 43.1457 114.742 42.9883 115.931 42.9883C117.119 42.9883 118.198 43.1457 119.166 43.4606C120.135 43.7754 120.96 44.255 121.642 44.8994C122.325 45.5437 122.853 46.3491 123.227 47.3157C123.601 48.2822 123.788 49.4244 123.788 50.7424C123.788 52.0604 123.601 53.2027 123.227 54.1692C122.853 55.1357 122.325 55.9375 121.642 56.5745C120.96 57.2115 120.135 57.6875 119.166 58.0023C118.198 58.3172 117.119 58.4746 115.931 58.4746C114.742 58.4746 113.664 58.3172 112.695 58.0023C111.727 57.6875 110.902 57.2115 110.219 56.5745C109.537 55.9375 109.009 55.1357 108.634 54.1692C108.26 53.2027 108.073 52.0604 108.073 50.7424ZM115.931 53.4223C116.474 53.4223 116.914 53.2319 117.251 52.8512C117.589 52.4704 117.758 51.7675 117.758 50.7424C117.758 48.9412 117.149 48.0406 115.931 48.0406C114.713 48.0406 114.104 48.9412 114.104 50.7424C114.104 51.255 114.148 51.6833 114.236 52.0275C114.324 52.3716 114.449 52.6462 114.61 52.8512C114.772 53.0562 114.962 53.2027 115.182 53.2905C115.403 53.3784 115.652 53.4223 115.931 53.4223Z" fill="#DEE3E5"/>
<path d="M124.668 58.1891L130.17 50.5668L124.888 43.2739H131.601L133.516 45.9319L135.453 43.2739H142.166L136.883 50.5668L142.386 58.1891H135.695L133.516 55.2017L131.359 58.1891H124.668Z" fill="#DEE3E5"/>
<path d="M20.1621 55.3077C22.2699 56.7927 24.5538 58.6364 26.8399 60.9158C32.2587 66.3173 35.5044 71.9832 37.4442 76.2366C38.8433 72.4108 41.5769 66.5772 46.9532 61.1193C49.5137 58.52 52.0969 56.592 54.3411 55.1745C53.2304 52.7867 52.1196 50.399 51.0089 48.0112C48.857 49.3241 46.1146 51.2872 43.37 54.1296C40.5703 57.0292 38.6834 59.8972 37.4435 62.1239C35.7157 59.5414 33.3995 56.5452 30.3409 53.5204C28.0783 51.2828 25.8531 49.4683 23.8385 48.0112C23.3 49.3944 22.6353 50.891 21.8092 52.4572C21.267 53.4853 20.7124 54.4349 20.1621 55.3085V55.3077Z" fill="#DEE3E5"/>
<path d="M37.2512 30.0573C38.4691 28.3403 40.0222 26.4058 41.9774 24.4317C44.1601 22.2278 46.3068 20.5159 48.1776 19.2081L48.5804 21.3777C50.7814 19.449 52.9823 17.5204 55.1833 15.591V0C51.8165 1.15616 47.8482 2.8527 43.6685 5.38469C41.3039 6.81763 39.2335 8.29817 37.4434 9.72452C34.8235 7.81564 31.668 5.78009 27.966 3.85803C24.8303 2.22959 21.8634 0.974576 19.1885 0.000732928V15.4314C21.3088 17.0657 23.4298 18.7 25.55 20.3336C25.7914 19.8781 26.0335 19.4227 26.2749 18.9672C27.6241 19.687 29.1501 20.6499 30.704 21.9408C34.0766 24.7429 36.0913 27.8541 37.2512 30.0581V30.0573Z" fill="#DEE3E5"/>
<path d="M74.1392 3.37354C72.8318 3.98567 71.495 4.63807 70.1341 5.33294C68.6066 6.11274 67.14 6.89914 65.7358 7.68407C67.2545 9.06869 68.7724 10.4533 70.2911 11.8386C63.8628 14.7118 56.2826 18.81 48.4581 24.6934C44.1464 27.9349 40.4282 31.2167 37.2515 34.3344C33.3271 30.7671 28.7769 27.0101 23.5621 23.2824C16.6789 18.3627 10.0745 14.5229 4.16337 11.5253C5.62923 10.1926 7.09508 8.86 8.56167 7.52811C5.70846 6.1435 2.85453 4.75888 0.00132109 3.37354C-0.026558 6.88962 0.368884 12.6016 2.90735 19.0502C5.72681 26.2142 9.89253 30.9882 12.489 33.551C10.7876 34.7789 9.0855 36.0068 7.38415 37.2347C11.0524 37.8747 17.1323 39.4226 23.4843 43.5837C28.7249 47.0171 32.1782 50.9366 34.2442 53.6949H40.8413C41.9652 51.3737 45.0803 45.732 51.7581 41.6243C58.3552 37.5657 64.7212 37.2867 67.3081 37.3131C65.5539 35.9548 63.8004 34.5958 62.0462 33.2376C64.3162 30.986 67.0946 27.7138 69.4283 23.2831C73.707 15.1622 74.1949 7.50981 74.1406 3.37427L74.1392 3.37354ZM31.2354 46.1362C30.2443 45.4362 29.2751 44.8007 28.339 44.2244C27.8929 43.1488 27.383 42.0417 26.7968 40.9134C24.2194 35.9482 21.0156 32.1729 18.1066 29.3956C20.5409 30.3329 25.7763 32.7309 30.0675 38.2086C33.4482 42.5228 34.7541 46.8479 35.3007 49.3067C34.093 48.2692 32.7402 47.1994 31.2354 46.1355V46.1362ZM47.4948 40.9134C46.9094 42.0417 46.3987 43.1488 45.9527 44.2244C45.0158 44.8007 44.0466 45.4362 43.0562 46.1362C41.5514 47.1994 40.1993 48.2699 38.991 49.3074C39.5368 46.8487 40.8435 42.5235 44.2242 38.2093C48.5161 32.7316 53.7515 30.3329 56.185 29.3964C53.2761 32.1737 50.0714 35.949 47.4948 40.9141V40.9134Z" fill="#DEE3E5"/>
</svg>
